<mxfile host="app.diagrams.net" agent="Mozilla/5.0 (Windows NT 10.0; Win64; x64) AppleWebKit/537.36 (KHTML, like Gecko) Chrome/131.0.0.0 Safari/537.36" version="24.8.4">
  <diagram name="Página-1" id="EhW8XSbJin2HA-JUOvGg">
    <mxGraphModel dx="880" dy="434" grid="1" gridSize="10" guides="1" tooltips="1" connect="1" arrows="1" fold="1" page="1" pageScale="1" pageWidth="1169" pageHeight="827" math="0" shadow="0">
      <root>
        <mxCell id="0" />
        <mxCell id="1" parent="0" />
        <mxCell id="Z38UDhTr1A722hghBMyR-12" style="edgeStyle=orthogonalEdgeStyle;rounded=0;orthogonalLoop=1;jettySize=auto;html=1;exitX=0.5;exitY=0.5;exitDx=0;exitDy=0;exitPerimeter=0;entryX=0;entryY=0.5;entryDx=0;entryDy=0;" parent="1" source="Z38UDhTr1A722hghBMyR-1" target="Z38UDhTr1A722hghBMyR-10" edge="1">
          <mxGeometry relative="1" as="geometry" />
        </mxCell>
        <mxCell id="Z38UDhTr1A722hghBMyR-13" style="edgeStyle=orthogonalEdgeStyle;rounded=0;orthogonalLoop=1;jettySize=auto;html=1;exitX=0.5;exitY=0.5;exitDx=0;exitDy=0;exitPerimeter=0;entryX=0;entryY=0.5;entryDx=0;entryDy=0;" parent="1" source="Z38UDhTr1A722hghBMyR-1" target="Z38UDhTr1A722hghBMyR-11" edge="1">
          <mxGeometry relative="1" as="geometry" />
        </mxCell>
        <mxCell id="Z38UDhTr1A722hghBMyR-14" style="edgeStyle=orthogonalEdgeStyle;rounded=0;orthogonalLoop=1;jettySize=auto;html=1;exitX=0.5;exitY=0.5;exitDx=0;exitDy=0;exitPerimeter=0;entryX=0;entryY=0.5;entryDx=0;entryDy=0;" parent="1" source="Z38UDhTr1A722hghBMyR-1" target="Z38UDhTr1A722hghBMyR-6" edge="1">
          <mxGeometry relative="1" as="geometry" />
        </mxCell>
        <mxCell id="Z38UDhTr1A722hghBMyR-15" style="edgeStyle=orthogonalEdgeStyle;rounded=0;orthogonalLoop=1;jettySize=auto;html=1;exitX=0.5;exitY=0.5;exitDx=0;exitDy=0;exitPerimeter=0;entryX=0;entryY=0.5;entryDx=0;entryDy=0;" parent="1" source="Z38UDhTr1A722hghBMyR-1" target="Z38UDhTr1A722hghBMyR-7" edge="1">
          <mxGeometry relative="1" as="geometry">
            <Array as="points">
              <mxPoint x="80" y="170" />
              <mxPoint x="390" y="170" />
              <mxPoint x="390" y="160" />
            </Array>
          </mxGeometry>
        </mxCell>
        <mxCell id="Z38UDhTr1A722hghBMyR-17" style="edgeStyle=orthogonalEdgeStyle;rounded=0;orthogonalLoop=1;jettySize=auto;html=1;exitX=0.5;exitY=0.5;exitDx=0;exitDy=0;exitPerimeter=0;entryX=0;entryY=0.5;entryDx=0;entryDy=0;" parent="1" source="Z38UDhTr1A722hghBMyR-1" target="Z38UDhTr1A722hghBMyR-9" edge="1">
          <mxGeometry relative="1" as="geometry">
            <Array as="points">
              <mxPoint x="80" y="170" />
              <mxPoint x="390" y="170" />
              <mxPoint x="390" y="340" />
            </Array>
          </mxGeometry>
        </mxCell>
        <mxCell id="Z38UDhTr1A722hghBMyR-1" value="Usuário" style="shape=umlActor;verticalLabelPosition=bottom;verticalAlign=top;html=1;outlineConnect=0;" parent="1" vertex="1">
          <mxGeometry x="60" y="245" width="40" height="70" as="geometry" />
        </mxCell>
        <mxCell id="Z38UDhTr1A722hghBMyR-6" value="Gerenciar conta" style="ellipse;whiteSpace=wrap;html=1;" parent="1" vertex="1">
          <mxGeometry x="220" y="320" width="130" height="40" as="geometry" />
        </mxCell>
        <mxCell id="Z38UDhTr1A722hghBMyR-7" value="Gerenciar Meus Portfólio" style="ellipse;whiteSpace=wrap;html=1;" parent="1" vertex="1">
          <mxGeometry x="410" y="140" width="130" height="40" as="geometry" />
        </mxCell>
        <mxCell id="Z38UDhTr1A722hghBMyR-9" value="Visualizar Portfólios publicados" style="ellipse;whiteSpace=wrap;html=1;" parent="1" vertex="1">
          <mxGeometry x="410" y="310" width="130" height="60" as="geometry" />
        </mxCell>
        <mxCell id="Z38UDhTr1A722hghBMyR-10" value="Cadastrar conta" style="ellipse;whiteSpace=wrap;html=1;" parent="1" vertex="1">
          <mxGeometry x="220" y="200" width="130" height="40" as="geometry" />
        </mxCell>
        <mxCell id="Z38UDhTr1A722hghBMyR-11" value="Entrar em conta" style="ellipse;whiteSpace=wrap;html=1;" parent="1" vertex="1">
          <mxGeometry x="220" y="260" width="130" height="40" as="geometry" />
        </mxCell>
        <mxCell id="Z38UDhTr1A722hghBMyR-21" style="edgeStyle=orthogonalEdgeStyle;rounded=0;orthogonalLoop=1;jettySize=auto;html=1;exitX=0;exitY=0.5;exitDx=0;exitDy=0;entryX=1;entryY=0.5;entryDx=0;entryDy=0;dashed=1;" parent="1" source="Z38UDhTr1A722hghBMyR-18" target="Z38UDhTr1A722hghBMyR-7" edge="1">
          <mxGeometry relative="1" as="geometry" />
        </mxCell>
        <mxCell id="Z38UDhTr1A722hghBMyR-18" value="Criar Portfólio" style="ellipse;whiteSpace=wrap;html=1;" parent="1" vertex="1">
          <mxGeometry x="640" y="110" width="130" height="40" as="geometry" />
        </mxCell>
        <mxCell id="Z38UDhTr1A722hghBMyR-23" style="edgeStyle=orthogonalEdgeStyle;rounded=0;orthogonalLoop=1;jettySize=auto;html=1;exitX=0;exitY=0.5;exitDx=0;exitDy=0;entryX=1;entryY=0.5;entryDx=0;entryDy=0;dashed=1;" parent="1" source="Z38UDhTr1A722hghBMyR-19" target="Z38UDhTr1A722hghBMyR-7" edge="1">
          <mxGeometry relative="1" as="geometry" />
        </mxCell>
        <mxCell id="Z38UDhTr1A722hghBMyR-19" value="Excluir Portfólio" style="ellipse;whiteSpace=wrap;html=1;" parent="1" vertex="1">
          <mxGeometry x="640" y="205" width="130" height="40" as="geometry" />
        </mxCell>
        <mxCell id="Z38UDhTr1A722hghBMyR-26" style="edgeStyle=orthogonalEdgeStyle;rounded=0;orthogonalLoop=1;jettySize=auto;html=1;exitX=0;exitY=0.5;exitDx=0;exitDy=0;entryX=1;entryY=0.5;entryDx=0;entryDy=0;dashed=1;" parent="1" source="Z38UDhTr1A722hghBMyR-25" target="Z38UDhTr1A722hghBMyR-7" edge="1">
          <mxGeometry relative="1" as="geometry" />
        </mxCell>
        <mxCell id="Z38UDhTr1A722hghBMyR-27" value="&amp;lt;&amp;lt;Extends&amp;gt;&amp;gt;" style="edgeLabel;html=1;align=center;verticalAlign=middle;resizable=0;points=[];" parent="Z38UDhTr1A722hghBMyR-26" vertex="1" connectable="0">
          <mxGeometry x="-0.125" y="4" relative="1" as="geometry">
            <mxPoint x="-1" y="-27" as="offset" />
          </mxGeometry>
        </mxCell>
        <mxCell id="Z38UDhTr1A722hghBMyR-42" style="edgeStyle=orthogonalEdgeStyle;rounded=0;orthogonalLoop=1;jettySize=auto;html=1;exitX=1;exitY=0.5;exitDx=0;exitDy=0;entryX=0;entryY=0.5;entryDx=0;entryDy=0;endArrow=block;endFill=0;strokeWidth=1;endSize=12;" parent="1" source="Z38UDhTr1A722hghBMyR-25" target="Z38UDhTr1A722hghBMyR-28" edge="1">
          <mxGeometry relative="1" as="geometry" />
        </mxCell>
        <mxCell id="Z38UDhTr1A722hghBMyR-43" style="edgeStyle=orthogonalEdgeStyle;rounded=0;orthogonalLoop=1;jettySize=auto;html=1;exitX=1;exitY=0.5;exitDx=0;exitDy=0;endArrow=block;endFill=0;endSize=12;" parent="1" source="Z38UDhTr1A722hghBMyR-25" target="Z38UDhTr1A722hghBMyR-30" edge="1">
          <mxGeometry relative="1" as="geometry" />
        </mxCell>
        <mxCell id="Z38UDhTr1A722hghBMyR-44" style="edgeStyle=orthogonalEdgeStyle;rounded=0;orthogonalLoop=1;jettySize=auto;html=1;exitX=1;exitY=0.5;exitDx=0;exitDy=0;entryX=0;entryY=0.5;entryDx=0;entryDy=0;endArrow=block;endFill=0;endSize=12;" parent="1" source="Z38UDhTr1A722hghBMyR-25" target="Z38UDhTr1A722hghBMyR-34" edge="1">
          <mxGeometry relative="1" as="geometry" />
        </mxCell>
        <mxCell id="Z38UDhTr1A722hghBMyR-25" value="Editar Portfólio" style="ellipse;whiteSpace=wrap;html=1;" parent="1" vertex="1">
          <mxGeometry x="640" y="160" width="130" height="40" as="geometry" />
        </mxCell>
        <mxCell id="Z38UDhTr1A722hghBMyR-28" value="Editar Seção" style="ellipse;whiteSpace=wrap;html=1;" parent="1" vertex="1">
          <mxGeometry x="870" y="110" width="130" height="40" as="geometry" />
        </mxCell>
        <mxCell id="Z38UDhTr1A722hghBMyR-30" value="Editar Publicações" style="ellipse;whiteSpace=wrap;html=1;" parent="1" vertex="1">
          <mxGeometry x="870" y="160" width="130" height="40" as="geometry" />
        </mxCell>
        <mxCell id="Z38UDhTr1A722hghBMyR-34" value="Editar Formulários" style="ellipse;whiteSpace=wrap;html=1;" parent="1" vertex="1">
          <mxGeometry x="870" y="210" width="130" height="40" as="geometry" />
        </mxCell>
        <mxCell id="Z38UDhTr1A722hghBMyR-39" value="Avaliar Portfólio" style="ellipse;whiteSpace=wrap;html=1;" parent="1" vertex="1">
          <mxGeometry x="650" y="320" width="130" height="40" as="geometry" />
        </mxCell>
        <mxCell id="Z38UDhTr1A722hghBMyR-40" style="edgeStyle=orthogonalEdgeStyle;rounded=0;orthogonalLoop=1;jettySize=auto;html=1;exitX=0;exitY=0.5;exitDx=0;exitDy=0;entryX=1;entryY=0.5;entryDx=0;entryDy=0;dashed=1;" parent="1" source="Z38UDhTr1A722hghBMyR-39" target="Z38UDhTr1A722hghBMyR-9" edge="1">
          <mxGeometry relative="1" as="geometry">
            <mxPoint x="700" y="315" as="sourcePoint" />
            <mxPoint x="600" y="250" as="targetPoint" />
          </mxGeometry>
        </mxCell>
        <mxCell id="Z38UDhTr1A722hghBMyR-41" value="&amp;lt;&amp;lt;Extends&amp;gt;&amp;gt;" style="edgeLabel;html=1;align=center;verticalAlign=middle;resizable=0;points=[];" parent="Z38UDhTr1A722hghBMyR-40" vertex="1" connectable="0">
          <mxGeometry x="0.0711" relative="1" as="geometry">
            <mxPoint as="offset" />
          </mxGeometry>
        </mxCell>
      </root>
    </mxGraphModel>
  </diagram>
</mxfile>
